<?xml version="1.0" standalone="no"?>
<!DOCTYPE svg PUBLIC "-//W3C//DTD SVG 20010904//EN"
 "http://www.w3.org/TR/2001/REC-SVG-20010904/DTD/svg10.dtd">
<svg version="1.0" xmlns="http://www.w3.org/2000/svg"
 width="700.000000pt" height="700.000000pt" viewBox="0 0 700.000000 700.000000"
 preserveAspectRatio="xMidYMid meet">
<metadata>
Created by potrace 1.14, written by Peter Selinger 2001-2017
</metadata>
<g transform="translate(0.000000,700.000000) scale(0.100000,-0.100000)"
fill="#000000" stroke="none">
<path d="M3278 6996 c-1 -2 -39 -6 -83 -10 -396 -30 -841 -152 -1210 -332
-180 -87 -448 -247 -555 -331 -8 -6 -51 -40 -95 -74 -351 -273 -674 -652 -897
-1054 -48 -86 -148 -289 -148 -301 0 -2 -11 -27 -24 -56 -60 -133 -155 -432
-181 -569 -3 -13 -11 -58 -20 -99 -22 -115 -30 -160 -41 -255 -26 -230 -26
-667 1 -826 2 -13 6 -46 9 -74 9 -78 22 -152 51 -285 21 -96 91 -339 114 -395
5 -11 25 -65 46 -120 63 -166 249 -531 312 -610 4 -6 34 -49 65 -95 31 -47 97
-136 147 -197 423 -524 974 -912 1601 -1125 196 -67 448 -127 639 -154 25 -3
57 -7 70 -10 167 -26 681 -25 843 1 13 2 46 7 73 10 72 10 86 12 120 19 17 3
44 8 60 11 342 65 741 212 1039 384 49 28 93 51 97 51 5 0 9 5 9 10 0 6 5 10
10 10 15 0 220 141 330 227 151 117 324 281 450 422 36 41 70 79 76 85 6 6 48
61 94 121 150 197 277 405 383 628 26 53 47 99 47 102 0 2 11 28 24 57 57 127
151 421 182 573 17 81 54 301 59 350 4 33 9 71 11 85 9 47 11 525 4 605 -15
157 -21 210 -25 225 -2 8 -7 35 -10 60 -17 129 -80 384 -136 552 -351 1044
-1180 1869 -2227 2213 -162 54 -405 113 -532 130 -19 3 -46 7 -60 10 -13 2
-52 7 -86 11 -33 3 -74 8 -90 10 -32 5 -540 14 -546 10z m347 -707 c33 -5 69
-11 80 -14 80 -19 99 -25 108 -34 6 -6 18 -11 28 -11 22 0 177 -96 234 -145
103 -89 208 -246 253 -380 74 -219 57 -465 -46 -670 -121 -243 -360 -422 -627
-472 -22 -4 -96 -8 -165 -7 -148 0 -250 23 -372 84 -100 50 -154 87 -226 158
-125 122 -218 289 -248 447 -4 22 -9 47 -11 55 -7 27 -6 214 1 255 72 428 427
738 851 743 44 0 107 -3 140 -9z m-1785 -1334 c166 -32 325 -118 445 -239 82
-82 121 -136 169 -232 165 -331 100 -738 -159 -1000 -80 -82 -139 -124 -238
-172 -126 -62 -229 -86 -372 -86 -174 -1 -249 14 -385 77 -385 179 -584 613
-470 1024 90 326 349 564 685 629 70 13 255 13 325 -1z m3713 -14 c175 -46
338 -151 459 -295 61 -73 148 -237 167 -317 98 -414 -93 -834 -462 -1014 -129
-62 -227 -86 -362 -88 -183 -2 -293 23 -439 100 -364 194 -545 629 -424 1023
96 311 344 534 673 604 98 20 286 14 388 -13z m-1948 -927 c64 -9 195 -78 251
-131 219 -207 224 -544 13 -754 -163 -161 -396 -198 -604 -95 -206 102 -322
333 -279 561 41 221 221 395 434 422 25 3 47 7 48 8 4 4 80 -2 137 -11z
m-1076 -1210 c137 -27 251 -76 361 -157 236 -174 367 -449 354 -740 -17 -384
-269 -699 -646 -808 -113 -32 -295 -35 -419 -5 -601 142 -873 828 -532 1343
55 84 179 201 269 255 85 51 187 91 287 111 81 17 242 18 326 1z m2323 -11
c381 -99 651 -444 652 -833 0 -120 -8 -178 -36 -270 -96 -309 -368 -549 -690
-606 -77 -14 -278 -8 -348 10 -212 54 -370 158 -492 320 -168 226 -221 496
-148 763 51 187 166 354 325 471 108 79 255 143 363 158 26 3 49 8 52 11 2 2
55 3 117 2 81 -2 140 -9 205 -26z"/>
</g>
</svg>
